<svg width="95" height="39" viewBox="0 0 95 39" fill="none" xmlns="http://www.w3.org/2000/svg">
<mask id="mask0" mask-type="alpha" maskUnits="userSpaceOnUse" x="18" y="3" width="12" height="17">
<path fill-rule="evenodd" clip-rule="evenodd" d="M19.1229 11.3864L29.3785 19.2509L28.7651 7.63264C28.7651 7.63264 29.1914 6.51894 26.9216 5.94651C24.6514 5.3731 18.8043 3.47992 18.8043 3.47992L19.1229 11.3864Z" fill="white"/>
</mask>
<g mask="url(#mask0)">
<path fill-rule="evenodd" clip-rule="evenodd" d="M11.9106 26.1445H36.2721V-3.41318H11.9106V26.1445Z" fill="#924E00"/>
</g>
<mask id="mask1" mask-type="alpha" maskUnits="userSpaceOnUse" x="18" y="0" width="10" height="7">
<path fill-rule="evenodd" clip-rule="evenodd" d="M24.306 0C22.4776 0.0233846 20.0626 0.539308 18.9592 2.87144C18.8515 3.09944 18.8018 3.30454 18.8023 3.48918V3.49113C18.8111 5.36872 24.0351 5.17677 26.9216 5.94651C27.0683 5.98646 27.2101 6.02738 27.3445 6.07269C27.0337 5.95285 26.9436 5.93092 26.9216 5.93433L26.6362 0.221667C26.6362 0.221667 25.7578 0.0151026 24.5734 0H24.306Z" fill="white"/>
</mask>
<g mask="url(#mask1)">
<path fill-rule="evenodd" clip-rule="evenodd" d="M11.9092 12.9668H34.2395V-6.89456H11.9092V12.9668Z" fill="#FDAC42"/>
</g>
<mask id="mask2" mask-type="alpha" maskUnits="userSpaceOnUse" x="0" y="7" width="30" height="32">
<path fill-rule="evenodd" clip-rule="evenodd" d="M28.4378 8.39751C28.2575 8.68153 28.012 9.00259 27.6656 9.34069C22.6476 14.2485 11.0294 8.27182 11.0294 8.27182L7.81351 11.8984C7.81351 11.8984 0.0668657 19.2192 0.00012207 19.34V19.3503C0.325071 25.8205 0.649045 32.1329 0.975455 38.6026H1.01248C6.60628 32.1446 10.7673 31.3276 13.57 31.3398C17.676 31.3597 22.9921 37.9659 29.9821 30.666L28.7647 7.63264C28.7232 7.86015 28.6185 8.11494 28.4378 8.39751Z" fill="white"/>
</mask>
<g mask="url(#mask2)">
<path fill-rule="evenodd" clip-rule="evenodd" d="M-6.89398 45.5362H36.8752V0.738564H-6.89398V45.5362Z" fill="#FF8800"/>
</g>
<path fill-rule="evenodd" clip-rule="evenodd" d="M0 19.3007V19.3012H10.1192L11.0293 8.27684V8.27197L0 19.3007Z" fill="#924E00"/>
<path fill-rule="evenodd" clip-rule="evenodd" d="M37.5997 18.7139H39.7384C40.3215 18.7139 40.7873 18.54 41.1361 18.1912C41.4844 17.8429 41.6589 17.3849 41.6589 16.8178C41.6589 16.2508 41.4844 15.7972 41.1361 15.4566C40.7873 15.1166 40.3215 14.9466 39.7384 14.9466H37.5997V18.7139ZM33.4192 27.3419V11.3005H39.714C41.5127 11.3005 42.9952 11.8072 44.162 12.8195C45.3283 13.8324 45.9119 15.1653 45.9119 16.8178C45.9119 18.4387 45.32 19.7672 44.1376 20.8039C42.9548 21.8411 41.4801 22.359 39.714 22.359H37.5997V27.3419H33.4192Z" fill="#222226"/>
<path fill-rule="evenodd" clip-rule="evenodd" d="M54.0296 22.6508L52.644 18.9322L51.2346 22.6508H54.0296ZM56.0952 27.3419L55.512 26.0051H49.7521L49.1685 27.3419H44.6723L51.9634 11.0092H53.3003L60.5919 27.3419H56.0952Z" fill="#222226"/>
<path fill-rule="evenodd" clip-rule="evenodd" d="M61.0535 19.3214C61.0209 17.0205 61.8637 15.0518 63.581 13.4154C65.2983 11.7789 67.3644 10.977 69.7789 11.0092C72.776 11.0092 75.077 12.2003 76.6813 14.5817L73.765 17.0609C72.7112 15.5867 71.3583 14.8491 69.7058 14.8491C68.3607 14.8491 67.2958 15.2545 66.5099 16.0642C65.7236 16.8748 65.331 17.9603 65.331 19.3214C65.331 20.6987 65.748 21.8085 66.583 22.6508C67.4171 23.4932 68.5395 23.9151 69.9489 23.9151C71.4719 23.9151 72.6464 23.4366 73.4732 22.4808V21.7271H69.7302V18.1303H77.6537V23.1857C76.9078 24.5143 75.8389 25.5919 74.4456 26.4177C73.0513 27.2284 71.4962 27.6337 69.7789 27.6337C67.3644 27.6659 65.2983 26.8679 63.581 25.2392C61.8637 23.6111 61.0209 21.6385 61.0535 19.3214Z" fill="#222226"/>
<path fill-rule="evenodd" clip-rule="evenodd" d="M84.2154 14.9464V18.7137H86.3541C86.9373 18.7137 87.403 18.5398 87.7518 18.191C88.1002 17.8427 88.2746 17.3852 88.2746 16.8181C88.2746 16.251 88.1002 15.797 87.7518 15.4569C87.403 15.1169 86.9373 14.9464 86.3541 14.9464H84.2154ZM94.2289 27.3417H89.5627L85.941 22.3593H84.2154V27.3417H80.0349V11.3008H86.3298C88.1284 11.3008 89.6109 11.8075 90.7777 12.8198C91.944 13.8327 92.5277 15.1651 92.5277 16.8181C92.5277 18.8272 91.6848 20.3507 89.9997 21.3874L94.2289 27.3417Z" fill="#222226"/>
<path fill-rule="evenodd" clip-rule="evenodd" d="M35.6283 9.81672V10.1431C35.45 10.1923 35.2644 10.2172 35.071 10.2172C34.7251 10.2172 34.4547 10.1285 34.2618 9.94972C34.0689 9.7719 33.9724 9.502 33.9724 9.14051V6.89803H33.3483V6.55651H33.9724V5.5388H34.3509V6.55651H35.5095V6.89803H34.3509V9.1259C34.3509 9.62574 34.6111 9.87567 35.1309 9.87567C35.2644 9.87567 35.4305 9.85618 35.6283 9.81672Z" fill="#222226"/>
<path fill-rule="evenodd" clip-rule="evenodd" d="M39.3414 7.87799V10.1429H38.9702V7.90819C38.9702 7.58129 38.8796 7.31968 38.6993 7.12432C38.5186 6.92896 38.2745 6.83104 37.9676 6.83104C37.6558 6.83104 37.3995 6.93286 37.1988 7.13601C36.9986 7.33868 36.8982 7.59591 36.8982 7.90819V10.1429H36.527V4.57345H36.8982V7.04637C37.1554 6.67027 37.5345 6.48222 38.0343 6.48222C38.4357 6.48222 38.7534 6.60937 38.9887 6.86465C39.224 7.11945 39.3414 7.45755 39.3414 7.87799Z" fill="#222226"/>
<path fill-rule="evenodd" clip-rule="evenodd" d="M40.797 8.10112H43.4258C43.4409 7.71966 43.3279 7.41176 43.0882 7.17645C42.8475 6.94114 42.5499 6.82373 42.1933 6.82373C41.8318 6.82373 41.5224 6.94504 41.2647 7.18766C41.0021 7.42491 40.8467 7.7294 40.797 8.10112ZM43.7824 8.43532H40.7824C40.8019 8.85089 40.9514 9.19386 41.2316 9.46376C41.5112 9.73366 41.8537 9.8686 42.26 9.8686C42.7404 9.8686 43.1389 9.68007 43.456 9.30396L43.6933 9.5495C43.3123 9.99478 42.8319 10.2174 42.2527 10.2174C41.7426 10.2272 41.3032 10.0464 40.9344 9.67519C40.5656 9.30396 40.3858 8.86307 40.3961 8.35396C40.3858 7.84389 40.5617 7.40153 40.9232 7.02786C41.2847 6.65419 41.7129 6.47199 42.2079 6.48222C42.6585 6.48222 43.0385 6.63032 43.3479 6.9275C43.6572 7.22468 43.8122 7.60809 43.8122 8.07871C43.8122 8.24191 43.8019 8.36078 43.7824 8.43532Z" fill="#222226"/>
</svg>
